<svg width="539" height="514" viewBox="0 0 539 514" fill="none" xmlns="http://www.w3.org/2000/svg">
<g filter="url(#filter0_d_54_19)">
<path d="M524.993 226.241L429.285 481.049C424.89 492.75 413.7 500.5 401.201 500.5H140.925C128.535 500.5 117.42 492.883 112.948 481.329L14.5845 227.188C9.76991 214.748 13.7467 200.624 24.3443 192.524L249.043 20.7822C260.075 12.3503 275.515 12.6122 286.456 21.3138C328.515 54.7657 364.459 80.5637 400.308 106.293L401.202 106.934C437.351 132.879 473.458 158.822 515.848 192.628C525.858 200.611 529.519 214.19 524.993 226.241Z" stroke="#0048B4" stroke-width="10"/>
<path d="M201 194C201 210.502 187.412 224 170.5 224C153.588 224 140 210.502 140 194C140 177.498 153.588 164 170.5 164C187.412 164 201 177.498 201 194Z" stroke="#0048B4" stroke-width="10"/>
<path d="M406 194C406 210.502 392.412 224 375.5 224C358.588 224 345 210.502 345 194C345 177.498 358.588 164 375.5 164C392.412 164 406 177.498 406 194Z" stroke="#0048B4" stroke-width="10"/>
<path d="M299 304C299 320.502 285.412 334 268.5 334C251.588 334 238 320.502 238 304C238 287.498 251.588 274 268.5 274C285.412 274 299 287.498 299 304Z" stroke="#0048B4" stroke-width="10"/>
<path d="M370.457 375.371C369.885 376.174 369.284 377.011 368.656 377.877C362.502 386.36 353.724 397.66 343.212 408.971C332.684 420.3 320.526 431.52 307.627 439.938C294.693 448.379 281.367 453.774 268.412 454.001C255.541 454.227 241.422 448.835 227.162 440.014C212.972 431.236 199.114 419.358 186.883 407.313C174.673 395.287 164.201 383.211 156.777 374.132C156.142 373.356 155.53 372.602 154.942 371.872C162.714 374.321 172.907 377.375 184.38 380.424C209.965 387.224 242.377 394.126 268.524 394C291.835 393.888 320.814 388.138 343.708 382.524C354.171 379.958 363.449 377.399 370.457 375.371Z" stroke="#0048B4" stroke-width="10"/>
</g>
<defs>
<filter id="filter0_d_54_19" x="-3.55811" y="0" width="546.058" height="513.5" filterUnits="userSpaceOnUse" color-interpolation-filters="sRGB">
<feFlood flood-opacity="0" result="BackgroundImageFix"/>
<feColorMatrix in="SourceAlpha" type="matrix" values="0 0 0 0 0 0 0 0 0 0 0 0 0 0 0 0 0 0 127 0" result="hardAlpha"/>
<feOffset dy="4"/>
<feGaussianBlur stdDeviation="2"/>
<feComposite in2="hardAlpha" operator="out"/>
<feColorMatrix type="matrix" values="0 0 0 0 0 0 0 0 0 0 0 0 0 0 0 0 0 0 0.25 0"/>
<feBlend mode="normal" in2="BackgroundImageFix" result="effect1_dropShadow_54_19"/>
<feBlend mode="normal" in="SourceGraphic" in2="effect1_dropShadow_54_19" result="shape"/>
</filter>
</defs>
</svg>
